<svg width="287" height="115" viewBox="0 0 287 115" fill="none" xmlns="http://www.w3.org/2000/svg">
    <path d="M140.817 35.5463H135.767V17.1133H140.817V35.5463Z" fill="white"/>
    <path d="M147.744 17.1133H152.795L162.047 28.3923H162.097V17.1133H167.141V35.5463H162.1L152.847 24.2673H152.804V35.5463H147.744V17.1133Z" fill="white"/>
    <path d="M181.816 35.5463H176.766V21.1713H172.592V17.1133H185.99V21.1713H181.816V35.5463Z" fill="white"/>
    <path d="M196.505 21.1706V24.2516H202.19V28.3096H196.505V31.4766H202.503V35.5316H191.454V17.1016H202.503V21.1595L196.505 21.1706Z" fill="white"/>
    <path d="M225.42 35.5463H219.13L214.364 28.4583H214.312V35.5463H209.261V17.1133H216.811C220.651 17.1133 223.563 18.8493 223.563 22.7853C223.651 23.9968 223.266 25.1965 222.482 26.1563C221.698 27.1162 220.569 27.7692 219.311 27.9913L225.42 35.5463ZM214.312 25.3773H214.803C216.452 25.3773 218.307 25.0773 218.307 23.0773C218.307 21.0773 216.452 20.7773 214.803 20.7773H214.312V25.3773Z" fill="white"/>
    <path d="M230.417 17.1133H235.466L244.715 28.3923H244.768V17.1133H249.819V35.5463H244.768L235.516 24.2673H235.466V35.5463H230.417V17.1133Z" fill="white"/>
    <path d="M261.804 21.1706V24.2516H267.502V28.3096H261.804V31.4766H267.813V35.5316H256.754V17.1016H267.809V21.1595L261.804 21.1706Z" fill="white"/>
    <path d="M282.293 35.5463H277.24V21.1713H273.066V17.1133H286.468V21.1713H282.293V35.5463Z" fill="white"/>
    <path d="M141.173 53.5522V56.6302H146.715V60.6912H141.173V67.9252H136.106V49.4922H147.265V53.5532L141.173 53.5522Z" fill="white"/>
    <path d="M170.458 67.9252H164.172L159.403 60.8372H159.35V67.9252H154.315V49.4922H161.865C165.708 49.4922 168.617 51.2282 168.617 55.1642C168.705 56.3757 168.32 57.5755 167.536 58.5354C166.752 59.4953 165.623 60.1483 164.365 60.3702L170.458 67.9252ZM159.35 57.7562H159.841C161.49 57.7562 163.345 57.4562 163.345 55.4562C163.345 53.4562 161.49 53.1562 159.841 53.1562H159.35V57.7562Z" fill="white"/>
    <path d="M181.1 53.5522V56.6302H186.792V60.6912H181.1V63.8672H187.109V67.9252H176.049V49.4922H187.104V53.5532L181.1 53.5522Z" fill="white"/>
    <path d="M199.499 53.5522V56.6302H205.191V60.6912H199.499V63.8672H205.508V67.9252H194.448V49.4922H205.503V53.5532L199.499 53.5522Z" fill="white"/>
    <path d="M212.848 49.4912H220.026C221.312 49.4732 222.59 49.6981 223.785 50.1529C224.979 50.6076 226.066 51.2831 226.983 52.14C227.9 52.9969 228.628 54.0182 229.125 55.1444C229.622 56.2706 229.878 57.4793 229.878 58.7002C229.878 59.9211 229.622 61.1298 229.125 62.2561C228.628 63.3823 227.9 64.4036 226.983 65.2605C226.066 66.1174 224.979 66.7929 223.785 67.2476C222.59 67.7023 221.312 67.9272 220.026 67.9092H212.857L212.848 49.4912ZM217.898 63.8662H219.034C222.046 63.8662 224.621 62.3022 224.621 58.7072C224.621 55.4072 222.327 53.5512 219.079 53.5512H217.893L217.898 63.8662Z" fill="white"/>
    <path d="M256.967 58.3668C256.967 61.0705 255.834 63.6636 253.819 65.5754C251.804 67.4873 249.07 68.5613 246.22 68.5613C243.37 68.5613 240.636 67.4873 238.621 65.5754C236.605 63.6636 235.473 61.0705 235.473 58.3668C235.473 52.7928 240.627 48.8828 246.226 48.8828C251.824 48.8828 256.967 52.7918 256.967 58.3668ZM240.732 58.3908C240.691 59.099 240.802 59.8078 241.06 60.4738C241.317 61.1398 241.714 61.749 242.228 62.2643C242.742 62.7795 243.361 63.1899 244.048 63.4704C244.735 63.7509 245.475 63.8956 246.223 63.8956C246.97 63.8956 247.71 63.7509 248.397 63.4704C249.084 63.1899 249.703 62.7795 250.217 62.2643C250.731 61.749 251.128 61.1398 251.386 60.4738C251.643 59.8078 251.754 59.099 251.713 58.3908C251.618 57.0707 250.999 55.8338 249.979 54.9304C248.96 54.027 247.617 53.5245 246.223 53.5245C244.828 53.5245 243.485 54.027 242.466 54.9304C241.446 55.8338 240.827 57.0707 240.732 58.3908V58.3908Z" fill="white"/>
    <path d="M265.674 49.4922H270.65L274.593 59.3442L278.767 49.4922H283.792L286.731 67.9252H281.67L280.245 57.3162H280.192L275.53 67.9252H273.527L269.071 57.3162H269.018L267.394 67.9252H262.377L265.674 49.4922Z" fill="white"/>
    <path d="M139.095 84.2462V87.4941H143.474V89.9941H139.093V96.4802H136.063V81.7441H143.774V84.2441L139.095 84.2462Z" fill="white"/>
    <path d="M155.441 96.8798C150.698 96.8798 147.753 93.4367 147.753 89.0967C147.753 84.7567 150.804 81.3438 155.441 81.3438C160.079 81.3438 163.13 84.7068 163.13 89.0878C163.13 93.4688 160.182 96.8798 155.441 96.8798ZM155.441 84.1877C152.578 84.1877 150.885 86.5948 150.885 88.9788C150.885 91.2468 152.084 94.0458 155.441 94.0458C158.799 94.0458 159.998 91.2458 159.998 88.9788C159.998 86.5948 158.308 84.1877 155.441 84.1877V84.1877Z" fill="white"/>
    <path d="M167.423 81.7441H170.452V89.9941C170.452 91.8141 170.617 94.3752 173.193 94.3752C175.768 94.3752 175.934 91.8131 175.934 89.9941V81.7441H178.965V90.5632C178.965 94.1632 177.357 96.8792 173.193 96.8792C169.029 96.8792 167.423 94.1602 167.423 90.5632V81.7441Z" fill="white"/>
    <path d="M183.998 81.3438H186.188L194.368 91.6588H194.409V81.7438H197.435V96.7778H195.245L187.062 86.4717H187.021V96.4808H183.995L183.998 81.3438Z" fill="white"/>
    <path d="M202.527 81.7441H206.858C211.351 81.7441 214.368 84.9322 214.368 89.1352C214.415 90.0932 214.255 91.0502 213.897 91.9473C213.539 92.8443 212.992 93.6625 212.288 94.3513C211.585 95.04 210.74 95.5848 209.806 95.9521C208.872 96.3195 207.869 96.5016 206.858 96.4872H202.527V81.7441ZM205.559 93.9852H206.054C209.783 93.9852 211.225 92.0291 211.225 89.1141C211.225 85.9081 209.495 84.2462 206.054 84.2462H205.559V93.9852Z" fill="white"/>
    <path d="M221.903 93.3798L220.629 96.4797H217.434L223.495 81.3438H225.846L231.741 96.4818H228.503L227.307 93.3738L221.903 93.3798ZM224.521 85.6627H224.476L222.764 91.0057H226.454L224.521 85.6627Z" fill="white"/>
    <path d="M238.955 96.4811H235.927V84.2461H232.798V81.7461H242.091V84.2461H238.963L238.955 96.4811Z" fill="white"/>
    <path d="M249.125 96.4811H246.09V81.7441H249.125V96.4811Z" fill="white"/>
    <path d="M261.16 96.8798C256.416 96.8798 253.472 93.4367 253.472 89.0967C253.472 84.7567 256.523 81.3438 261.16 81.3438C265.798 81.3438 268.839 84.7157 268.839 89.0967C268.839 93.4777 265.901 96.8798 261.16 96.8798ZM261.16 84.1877C258.294 84.1877 256.604 86.5948 256.604 88.9788C256.604 91.2468 257.8 94.0458 261.16 94.0458C264.521 94.0458 265.71 91.2458 265.71 88.9788C265.711 86.5948 264.024 84.1877 261.16 84.1877V84.1877Z" fill="white"/>
    <path d="M273.219 81.3438H275.409L283.592 91.6498H283.633V81.7358H286.674V96.7787H284.484L276.301 86.4728H276.26V96.4818H273.219V81.3438Z" fill="white"/>
    <path d="M32.8212 6.21168C22.2295 11.329 13.4755 19.311 7.66624 29.1481C1.85697 38.9852 -0.746589 50.2356 0.184818 61.4764C1.11622 72.7173 5.54076 83.4437 12.8989 92.299C20.257 101.154 30.2181 107.741 41.5226 111.226C52.827 114.71 64.9669 114.937 76.407 111.876C87.8471 108.816 98.0735 102.606 105.793 94.0316C113.512 85.4575 118.378 74.9044 119.774 63.707C121.171 52.5096 119.035 41.1708 113.638 31.1247C110.056 24.455 105.124 18.5199 99.1243 13.6584C93.1242 8.79677 86.1735 5.10386 78.6689 2.79047C71.1643 0.477086 63.2529 -0.411463 55.3864 0.175544C47.5198 0.762551 39.8521 2.81364 32.8212 6.21168V6.21168ZM112.2 46.2117C112.151 46.2136 112.102 46.2186 112.054 46.2267C111.647 46.2804 111.255 46.4106 110.902 46.6095C110.548 46.8084 110.24 47.0721 109.995 47.3852C109.75 47.6983 109.574 48.0545 109.475 48.4331C109.377 48.8117 109.359 49.205 109.423 49.5902C109.487 49.9753 109.631 50.3446 109.847 50.6763C110.063 51.0081 110.346 51.2958 110.68 51.5226C111.014 51.7494 111.393 51.9108 111.794 51.9974C112.194 52.0839 112.609 52.0939 113.014 52.0267L113.155 51.9997C113.507 55.3287 113.507 58.6827 113.155 62.0117L113.017 61.9847C112.207 61.8627 111.378 62.0512 110.714 62.5088C110.049 62.9664 109.604 63.6555 109.475 64.4247C109.347 65.1938 109.545 65.9799 110.028 66.61C110.51 67.2401 111.237 67.6627 112.048 67.7847C112.092 67.7878 112.138 67.7878 112.182 67.7847C111.43 71.053 110.337 74.2425 108.922 77.3067C108.885 77.2828 108.846 77.2611 108.806 77.2417C108.076 76.9022 107.235 76.8484 106.464 77.092C105.693 77.3357 105.053 77.8571 104.684 78.5439C104.314 79.2306 104.244 80.0277 104.488 80.7631C104.733 81.4984 105.272 82.1132 105.99 82.4747L106.116 82.5277C104.336 85.4142 102.261 88.1273 99.9203 90.6277C99.8887 90.5917 99.8518 90.5567 99.8149 90.5277C99.2339 89.9765 98.446 89.6669 97.6243 89.6669C96.8027 89.6669 96.0148 89.9765 95.4338 90.5277C94.8528 91.0788 94.5264 91.8263 94.5264 92.6057C94.5264 93.3851 94.8528 94.1325 95.4338 94.6837L95.5392 94.7787C92.9049 97.0008 90.0446 98.9694 87.0004 100.656C86.9844 100.616 86.9657 100.577 86.9445 100.54C86.5684 99.8512 85.9202 99.3318 85.1417 99.0951C84.3632 98.8585 83.5176 98.9237 82.7896 99.2766C82.0617 99.6295 81.5105 100.241 81.2566 100.978C81.0026 101.716 81.0665 102.518 81.4344 103.211C81.4536 103.25 81.4754 103.287 81.4997 103.324C78.2728 104.671 74.9124 105.709 71.4682 106.424C71.4714 106.378 71.465 106.333 71.4492 106.29C71.3136 105.528 70.8668 104.848 70.2058 104.397C69.5448 103.946 68.723 103.761 67.9188 103.881C67.1146 104.002 66.3929 104.418 65.9103 105.04C65.4277 105.662 65.2233 106.439 65.3414 107.204C65.3463 107.251 65.3559 107.297 65.3698 107.343C61.8582 107.674 58.3207 107.674 54.8091 107.343C54.8213 107.3 54.8308 107.256 54.8376 107.212C54.914 106.826 54.9083 106.43 54.8205 106.047C54.7328 105.664 54.5649 105.301 54.3269 104.98C54.0888 104.66 53.7854 104.388 53.4345 104.18C53.0836 103.973 52.6925 103.834 52.2842 103.773C51.8758 103.711 51.4587 103.728 51.0573 103.822C50.6559 103.916 50.2785 104.085 49.9474 104.32C49.6163 104.555 49.3382 104.851 49.1296 105.189C48.921 105.528 48.7861 105.903 48.7329 106.292C48.7298 106.333 48.7298 106.375 48.7329 106.417C45.2885 105.703 41.928 104.664 38.7014 103.317C38.7235 103.284 38.7456 103.246 38.7636 103.21C38.9563 102.866 39.0749 102.489 39.1127 102.102C39.1504 101.714 39.1064 101.323 38.9833 100.952C38.8602 100.58 38.6604 100.236 38.3956 99.9386C38.1308 99.6412 37.8063 99.3968 37.4409 99.2196C37.0755 99.0424 36.6766 98.9359 36.2674 98.9063C35.8582 98.8768 35.4469 98.9249 35.0574 99.0476C34.668 99.1704 34.3082 99.3655 33.999 99.6215C33.6898 99.8775 33.4374 100.189 33.2566 100.539C33.2321 100.577 33.2123 100.618 33.1975 100.661C30.1523 98.9747 27.2919 97.005 24.6587 94.7807C24.6967 94.7507 24.7304 94.7187 24.7641 94.6807C25.3451 94.1296 25.6715 93.3821 25.6715 92.6027C25.6715 91.8233 25.3451 91.0758 24.7641 90.5247C24.1832 89.9735 23.3952 89.6639 22.5736 89.6639C21.752 89.6639 20.964 89.9735 20.383 90.5247C20.3491 90.5557 20.3178 90.5891 20.2892 90.6247C17.9448 88.1304 15.8693 85.4199 14.0938 82.5337L14.2161 82.4807C14.9419 82.1238 15.4894 81.509 15.7389 80.7705C15.9883 80.032 15.9196 79.2298 15.5476 78.5393C15.1756 77.8487 14.5306 77.3259 13.7535 77.085C12.9765 76.8441 12.1305 76.9048 11.4004 77.2537C11.3604 77.2719 11.3216 77.2926 11.2844 77.3157C9.86394 74.2527 8.76921 71.0629 8.0165 67.7937C8.0646 67.7965 8.11283 67.7965 8.16092 67.7937C8.97172 67.6717 9.69821 67.2491 10.1806 66.619C10.663 65.9889 10.8617 65.2028 10.7331 64.4337C10.6045 63.6645 10.1591 62.9754 9.49481 62.5178C8.83055 62.0602 8.00188 61.8717 7.19108 61.9937L7.04983 62.0207C6.69776 58.6907 6.69776 55.3356 7.04983 52.0057C7.0949 52.0193 7.14109 52.0293 7.18792 52.0357C7.99387 52.1467 8.81349 51.952 9.4691 51.4937C10.1247 51.0353 10.5635 50.3503 10.6902 49.5872C10.817 48.8241 10.6216 48.0443 10.1463 47.4169C9.6711 46.7895 8.95433 46.3651 8.15143 46.2357C8.10861 46.2329 8.06565 46.2329 8.02283 46.2357C8.77229 42.9678 9.86349 39.779 11.2802 36.7167L11.3993 36.7787C11.7614 36.954 12.1562 37.0601 12.5614 37.0907C12.9666 37.1213 13.3742 37.0759 13.7609 36.9571C14.1477 36.8383 14.5059 36.6484 14.8153 36.3982C15.1246 36.1481 15.379 35.8426 15.5639 35.4992C15.7487 35.1557 15.8605 34.7812 15.8928 34.3968C15.925 34.0124 15.8772 33.6258 15.7519 33.2589C15.6267 32.8921 15.4265 32.5522 15.1628 32.2588C14.8991 31.9654 14.577 31.724 14.215 31.5487L14.0864 31.4957C15.8639 28.6037 17.9426 25.8881 20.2913 23.3897C20.3224 23.425 20.3558 23.4584 20.3914 23.4897C20.9724 24.0408 21.7604 24.3504 22.582 24.3504C23.4036 24.3504 24.1916 24.0408 24.7726 23.4897C25.3536 22.9385 25.6799 22.1911 25.6799 21.4117C25.6799 20.6323 25.3536 19.8848 24.7726 19.3337C24.7396 19.2999 24.7044 19.2681 24.6672 19.2387C27.3029 17.0146 30.1654 15.0449 33.2123 13.3587C33.2293 13.4004 33.2491 13.4412 33.2713 13.4807C33.4548 13.8261 33.7085 14.1338 34.0177 14.386C34.327 14.6381 34.6858 14.8298 35.0734 14.95C35.461 15.0701 35.8699 15.1164 36.2764 15.0862C36.683 15.0559 37.0792 14.9497 37.4423 14.7737C37.8055 14.5977 38.1283 14.3553 38.3924 14.0605C38.6564 13.7657 38.8564 13.4242 38.9809 13.0558C39.1053 12.6874 39.1518 12.2993 39.1175 11.9139C39.0833 11.5284 38.9691 11.1531 38.7815 10.8097C38.7593 10.7707 38.7372 10.7327 38.713 10.6937C41.9418 9.34608 45.3044 8.30759 48.7508 7.59367C48.7528 7.64028 48.7581 7.68672 48.7666 7.73267C48.8952 8.5018 49.3406 9.19095 50.0049 9.64854C50.6692 10.1061 51.4978 10.2947 52.3086 10.1727C53.1194 10.0507 53.8459 9.62811 54.3283 8.99799C54.8107 8.36787 55.0094 7.58179 54.8808 6.81266C54.8743 6.76582 54.8648 6.71939 54.8523 6.67365C58.3616 6.3382 61.8975 6.3382 65.4067 6.67365C65.4006 6.71693 65.3911 6.75973 65.3783 6.80167C65.3146 7.18251 65.3306 7.57149 65.4254 7.94645C65.5202 8.32141 65.6919 8.675 65.9308 8.98701C66.1696 9.29901 66.4709 9.56332 66.8174 9.76487C67.164 9.96642 67.549 10.1013 67.9504 10.1617C68.3519 10.2221 68.762 10.2069 69.1573 10.117C69.5525 10.027 69.9253 9.86412 70.2542 9.63755C70.5831 9.41097 70.8617 9.12515 71.0742 8.79642C71.2866 8.4677 71.4288 8.10249 71.4925 7.72166L71.5114 7.59367C74.9523 8.30897 78.3095 9.34743 81.5335 10.6937C81.5076 10.7286 81.4847 10.7654 81.4649 10.8037C81.2801 11.1471 81.1683 11.5217 81.136 11.906C81.1037 12.2904 81.1516 12.6771 81.2768 13.0439C81.4021 13.4108 81.6023 13.7506 81.866 14.044C82.1297 14.3375 82.4517 14.5788 82.8138 14.7542C83.1758 14.9295 83.5706 15.0356 83.9758 15.0662C84.381 15.0968 84.7886 15.0514 85.1754 14.9326C85.5621 14.8138 85.9203 14.6239 86.2297 14.3737C86.539 14.1236 86.7934 13.8181 86.9783 13.4747C87.0004 13.4357 87.0194 13.3947 87.0373 13.3527C90.0825 15.0386 92.9429 17.0084 95.5761 19.2327C95.5381 19.2627 95.5044 19.2947 95.4707 19.3327C94.8897 19.8838 94.5633 20.6313 94.5633 21.4107C94.5633 22.1901 94.8897 22.9375 95.4707 23.4887C96.0517 24.0398 96.8396 24.3494 97.6612 24.3494C98.4829 24.3494 99.2708 24.0398 99.8518 23.4887C99.8874 23.4574 99.9209 23.424 99.952 23.3887C102.294 25.8837 104.369 28.5941 106.144 31.4797C106.101 31.4953 106.059 31.514 106.019 31.5357C105.293 31.8925 104.745 32.5073 104.496 33.2458C104.246 33.9843 104.315 34.7865 104.687 35.477C105.059 36.1676 105.704 36.6905 106.481 36.9313C107.258 37.1722 108.104 37.1116 108.834 36.7627C108.876 36.7417 108.919 36.7207 108.957 36.6977C110.368 39.76 111.454 42.948 112.198 46.2147L112.2 46.2117Z" fill="white"/>
    <path d="M61.8963 33.9944C61.2701 33.9474 60.6133 33.9203 59.9597 33.9203C59.4031 33.9203 58.8518 33.9413 58.3047 33.9733L59.8469 6.73633L61.8963 33.9944Z" fill="white"/>
    <path d="M61.887 80.2891L60.3595 107.267L58.3354 80.306C58.871 80.345 59.4118 80.3591 59.9599 80.3591C60.6072 80.3601 61.2513 80.3391 61.887 80.2891Z" fill="white"/>
    <path d="M54.2947 34.5523C53.1273 34.8097 51.9829 35.1531 50.8718 35.5793L43.4873 9.2793L54.2947 34.5523Z" fill="white"/>
    <path d="M76.7147 104.734L65.9854 79.6559C67.138 79.3774 68.2676 79.0192 69.365 78.584L76.7147 104.734Z" fill="white"/>
    <path d="M47.2275 37.3095C46.2043 37.8954 45.2295 38.5543 44.3116 39.2805L28.751 16.4805L47.2275 37.3095Z" fill="white"/>
    <path d="M91.4583 97.5229L73.0439 76.7689C74.0521 76.1662 75.0113 75.4926 75.9134 74.7539L91.4583 97.5229Z" fill="white"/>
    <path d="M41.384 42.0122C40.6079 42.871 39.898 43.7817 39.2598 44.7372L17.0811 27.6582L41.384 42.0122Z" fill="white"/>
    <path d="M103.124 86.3517L78.7959 71.9758C79.5596 71.1069 80.2541 70.1853 80.8737 69.2188L103.124 86.3517Z" fill="white"/>
    <path d="M37.346 48.2201C36.8887 49.2587 36.5141 50.3283 36.2254 51.4201L9.63184 41.7051L37.346 48.2201Z" fill="white"/>
    <path d="M110.574 72.3058L82.7036 65.7488C83.1495 64.6963 83.5093 63.6127 83.7799 62.5078L110.574 72.3058Z" fill="white"/>
    <path d="M35.4767 57.1443C35.4767 57.6663 35.4988 58.1803 35.5326 58.6933L7.11523 57.2483L35.5547 55.3223C35.5041 55.9223 35.4767 56.5333 35.4767 57.1443Z" fill="white"/>
    <path d="M84.3839 58.6998C84.4187 58.1868 84.4398 57.6668 84.4398 57.1448C84.4398 56.5248 84.4114 55.9098 84.3618 55.2988L113.089 56.7588L84.3839 58.6998Z" fill="white"/>
    <path d="M37.2448 65.8242L9.79102 72.7692L36.1622 62.6152C36.4403 63.7085 36.8021 64.781 37.2448 65.8242Z" fill="white"/>
    <path d="M110.414 41.2402L83.7112 51.5162C83.4259 50.4118 83.0502 49.3302 82.5874 48.2812L110.414 41.2402Z" fill="white"/>
    <path d="M41.2278 72.095L17.3877 86.748L39.1469 69.375C39.7681 70.3296 40.4637 71.2388 41.2278 72.095V72.095Z" fill="white"/>
    <path d="M102.818 27.2617L80.7492 44.8787C80.117 43.9104 79.4091 42.9885 78.6313 42.1207L102.818 27.2617Z" fill="white"/>
    <path d="M47.074 76.892L29.1699 97.812L44.1919 74.918C45.1031 75.6386 46.0662 76.2982 47.074 76.892V76.892Z" fill="white"/>
    <path d="M91.0431 16.1934L75.7765 39.4254C74.8604 38.6892 73.8887 38.0178 72.8691 37.4164L91.0431 16.1934Z" fill="white"/>
    <path d="M54.185 79.7124L43.9658 104.886L50.8063 78.6914C51.9047 79.1107 53.0343 79.452 54.186 79.7124H54.185Z" fill="white"/>
    <path d="M76.233 9.12305L69.2955 35.6711C68.1864 35.2367 67.0443 34.8823 65.8789 34.6111L76.233 9.12305Z" fill="white"/>
    <path d="M60.1029 37.0508C55.943 37.0516 51.8767 38.2225 48.4183 40.4154C44.9598 42.6084 42.2645 45.7249 40.6732 49.3709C39.0818 53.0169 38.6659 57.0286 39.4779 60.8989C40.29 64.7691 42.2936 68.324 45.2354 71.1141C48.1772 73.9042 51.9251 75.8041 56.0052 76.5737C60.0853 77.3432 64.3143 76.9479 68.1575 75.4376C72.0006 73.9273 75.2855 71.3698 77.5965 68.0887C79.9076 64.8075 81.1411 60.9499 81.1411 57.0038C81.1411 51.7119 78.925 46.6368 74.9804 42.8949C71.0358 39.153 65.6857 37.0508 60.1072 37.0508H60.1029ZM55.0682 40.4438C53.3264 42.0421 51.9204 43.9397 50.9253 46.0358H46.0498C48.3911 43.35 51.5354 41.4003 55.0682 40.4438V40.4438ZM44.0848 48.7548H49.8205C49.0979 50.9705 48.6774 53.2648 48.5692 55.5818H41.9353C42.1392 53.1921 42.8716 50.87 44.0848 48.7668V48.7548ZM43.8592 64.8398C42.76 62.808 42.1026 60.5873 41.9258 58.3098H48.584C48.6887 60.5191 49.0582 62.7099 49.6856 64.8398H43.8592ZM45.6924 67.5678H50.6987C51.6442 69.8003 53.0691 71.8218 54.8827 73.5038C51.2426 72.483 48.0298 70.4087 45.6935 67.5708L45.6924 67.5678ZM58.3614 72.6678C56.4125 71.372 54.8566 69.6133 53.8496 67.5678H58.3614V72.6678ZM58.3614 64.8438H52.6605C51.937 62.7301 51.5161 60.5338 51.4092 58.3138H58.3773L58.3614 64.8438ZM58.3614 55.5888H51.3934C51.5003 53.2602 51.9706 50.9595 52.7891 48.7618H58.3614V55.5888ZM58.3614 46.0398H54.0868C55.136 44.2033 56.5948 42.6058 58.3614 41.3588V46.0398ZM76.1232 48.7708C77.3371 50.8778 78.0685 53.2042 78.2695 55.5978H71.5924C71.4572 53.2714 70.9832 50.9739 70.184 48.7708H76.1232ZM74.1677 46.0398H68.9675C67.8218 43.8403 66.2398 41.871 64.308 40.2398C68.1735 41.1012 71.6361 43.138 74.1677 46.0398V46.0398ZM61.1666 41.3398C63.0238 42.5892 64.5886 44.1894 65.7628 46.0398H61.1666V41.3398ZM61.1666 48.7608H67.1754C68.0896 50.9409 68.6305 53.2456 68.7777 55.5878H61.1613L61.1666 48.7608ZM61.1666 58.3068H68.8072C68.6876 60.5389 68.2106 62.7408 67.3925 64.8368H61.1729L61.1666 58.3068ZM61.1666 72.5398V67.5708H66.0295C64.8369 69.565 63.1722 71.2692 61.1666 72.5488V72.5398ZM64.171 73.7978C66.308 72.0908 68.029 69.9642 69.2152 67.5648H74.5251C71.9367 70.7174 68.2786 72.9238 64.171 73.8098V73.7978ZM70.3664 64.8338C71.0852 62.719 71.5059 60.5233 71.6177 58.3038H78.279C78.1006 60.5811 77.4432 62.8014 76.3456 64.8338H70.3664Z" fill="white"/>
</svg>
    